<mxfile host="Electron" modified="2024-03-17T18:59:39.914Z" agent="Mozilla/5.0 (X11; Linux x86_64) AppleWebKit/537.36 (KHTML, like Gecko) draw.io/22.0.2 Chrome/114.0.5735.289 Electron/25.8.4 Safari/537.36" etag="MIq8GQe_JA8n1eb080Io" version="22.0.2" type="device">
  <diagram id="tNJmBUoDxnqjJc0c00nP" name="Page-1">
    <mxGraphModel dx="1434" dy="838" grid="1" gridSize="10" guides="1" tooltips="1" connect="1" arrows="1" fold="1" page="1" pageScale="1" pageWidth="850" pageHeight="1100" math="0" shadow="0">
      <root>
        <mxCell id="0" />
        <mxCell id="1" parent="0" />
        <mxCell id="kb47WbbnUSf2NKxiao4H-1" value="" style="whiteSpace=wrap;html=1;aspect=fixed;" parent="1" vertex="1">
          <mxGeometry x="230" y="660" width="50" height="50" as="geometry" />
        </mxCell>
        <mxCell id="kb47WbbnUSf2NKxiao4H-2" value="" style="whiteSpace=wrap;html=1;aspect=fixed;" parent="1" vertex="1">
          <mxGeometry x="282" y="660" width="50" height="50" as="geometry" />
        </mxCell>
        <mxCell id="kb47WbbnUSf2NKxiao4H-3" value="" style="whiteSpace=wrap;html=1;aspect=fixed;" parent="1" vertex="1">
          <mxGeometry x="334" y="660" width="50" height="50" as="geometry" />
        </mxCell>
        <mxCell id="kb47WbbnUSf2NKxiao4H-4" value="" style="whiteSpace=wrap;html=1;aspect=fixed;fillColor=#B3B3B3;" parent="1" vertex="1">
          <mxGeometry x="386" y="660" width="50" height="50" as="geometry" />
        </mxCell>
        <mxCell id="kb47WbbnUSf2NKxiao4H-5" value="" style="whiteSpace=wrap;html=1;aspect=fixed;" parent="1" vertex="1">
          <mxGeometry x="230" y="712" width="50" height="50" as="geometry" />
        </mxCell>
        <mxCell id="kb47WbbnUSf2NKxiao4H-6" value="" style="whiteSpace=wrap;html=1;aspect=fixed;" parent="1" vertex="1">
          <mxGeometry x="282" y="712" width="50" height="50" as="geometry" />
        </mxCell>
        <mxCell id="kb47WbbnUSf2NKxiao4H-7" value="" style="whiteSpace=wrap;html=1;aspect=fixed;" parent="1" vertex="1">
          <mxGeometry x="334" y="712" width="50" height="50" as="geometry" />
        </mxCell>
        <mxCell id="kb47WbbnUSf2NKxiao4H-8" value="" style="whiteSpace=wrap;html=1;aspect=fixed;fillColor=#B3B3B3;" parent="1" vertex="1">
          <mxGeometry x="386" y="712" width="50" height="50" as="geometry" />
        </mxCell>
        <mxCell id="kb47WbbnUSf2NKxiao4H-9" value="" style="whiteSpace=wrap;html=1;aspect=fixed;" parent="1" vertex="1">
          <mxGeometry x="230" y="764" width="50" height="50" as="geometry" />
        </mxCell>
        <mxCell id="kb47WbbnUSf2NKxiao4H-10" value="" style="whiteSpace=wrap;html=1;aspect=fixed;" parent="1" vertex="1">
          <mxGeometry x="282" y="764" width="50" height="50" as="geometry" />
        </mxCell>
        <mxCell id="kb47WbbnUSf2NKxiao4H-11" value="" style="whiteSpace=wrap;html=1;aspect=fixed;" parent="1" vertex="1">
          <mxGeometry x="334" y="764" width="50" height="50" as="geometry" />
        </mxCell>
        <mxCell id="kb47WbbnUSf2NKxiao4H-12" value="" style="whiteSpace=wrap;html=1;aspect=fixed;fillColor=#B3B3B3;" parent="1" vertex="1">
          <mxGeometry x="386" y="764" width="50" height="50" as="geometry" />
        </mxCell>
        <mxCell id="kb47WbbnUSf2NKxiao4H-23" value="" style="whiteSpace=wrap;html=1;aspect=fixed;" parent="1" vertex="1">
          <mxGeometry x="230" y="816" width="50" height="50" as="geometry" />
        </mxCell>
        <mxCell id="kb47WbbnUSf2NKxiao4H-24" value="" style="whiteSpace=wrap;html=1;aspect=fixed;fillColor=#B3B3B3;" parent="1" vertex="1">
          <mxGeometry x="282" y="816" width="50" height="50" as="geometry" />
        </mxCell>
        <mxCell id="kb47WbbnUSf2NKxiao4H-25" value="" style="whiteSpace=wrap;html=1;aspect=fixed;" parent="1" vertex="1">
          <mxGeometry x="334" y="816" width="50" height="50" as="geometry" />
        </mxCell>
        <mxCell id="kb47WbbnUSf2NKxiao4H-26" value="" style="whiteSpace=wrap;html=1;aspect=fixed;fillColor=#FFFFFF;" parent="1" vertex="1">
          <mxGeometry x="386" y="816" width="50" height="50" as="geometry" />
        </mxCell>
        <mxCell id="kb47WbbnUSf2NKxiao4H-30" value="" style="whiteSpace=wrap;html=1;aspect=fixed;" parent="1" vertex="1">
          <mxGeometry x="230" y="868" width="50" height="50" as="geometry" />
        </mxCell>
        <mxCell id="kb47WbbnUSf2NKxiao4H-31" value="" style="whiteSpace=wrap;html=1;aspect=fixed;fillColor=#B3B3B3;" parent="1" vertex="1">
          <mxGeometry x="282" y="868" width="50" height="50" as="geometry" />
        </mxCell>
        <mxCell id="kb47WbbnUSf2NKxiao4H-32" value="" style="whiteSpace=wrap;html=1;aspect=fixed;" parent="1" vertex="1">
          <mxGeometry x="334" y="868" width="50" height="50" as="geometry" />
        </mxCell>
        <mxCell id="kb47WbbnUSf2NKxiao4H-33" value="" style="whiteSpace=wrap;html=1;aspect=fixed;fillColor=#FFFFFF;" parent="1" vertex="1">
          <mxGeometry x="386" y="868" width="50" height="50" as="geometry" />
        </mxCell>
        <mxCell id="1towVgMfn-rUhUeNCm9Z-1" value="" style="whiteSpace=wrap;html=1;aspect=fixed;" parent="1" vertex="1">
          <mxGeometry x="230" y="920" width="50" height="50" as="geometry" />
        </mxCell>
        <mxCell id="1towVgMfn-rUhUeNCm9Z-2" value="" style="whiteSpace=wrap;html=1;aspect=fixed;fillColor=#B3B3B3;" parent="1" vertex="1">
          <mxGeometry x="282" y="920" width="50" height="50" as="geometry" />
        </mxCell>
        <mxCell id="1towVgMfn-rUhUeNCm9Z-3" value="" style="whiteSpace=wrap;html=1;aspect=fixed;" parent="1" vertex="1">
          <mxGeometry x="334" y="920" width="50" height="50" as="geometry" />
        </mxCell>
        <mxCell id="1towVgMfn-rUhUeNCm9Z-4" value="" style="whiteSpace=wrap;html=1;aspect=fixed;fillColor=#FFFFFF;" parent="1" vertex="1">
          <mxGeometry x="386" y="920" width="50" height="50" as="geometry" />
        </mxCell>
        <mxCell id="1towVgMfn-rUhUeNCm9Z-6" value="" style="whiteSpace=wrap;html=1;aspect=fixed;" parent="1" vertex="1">
          <mxGeometry x="230" y="972" width="50" height="50" as="geometry" />
        </mxCell>
        <mxCell id="1towVgMfn-rUhUeNCm9Z-7" value="" style="whiteSpace=wrap;html=1;aspect=fixed;fillColor=#B3B3B3;" parent="1" vertex="1">
          <mxGeometry x="282" y="972" width="50" height="50" as="geometry" />
        </mxCell>
        <mxCell id="1towVgMfn-rUhUeNCm9Z-8" value="" style="whiteSpace=wrap;html=1;aspect=fixed;" parent="1" vertex="1">
          <mxGeometry x="334" y="972" width="50" height="50" as="geometry" />
        </mxCell>
        <mxCell id="1towVgMfn-rUhUeNCm9Z-9" value="" style="whiteSpace=wrap;html=1;aspect=fixed;fillColor=#FFFFFF;" parent="1" vertex="1">
          <mxGeometry x="386" y="972" width="50" height="50" as="geometry" />
        </mxCell>
        <mxCell id="1towVgMfn-rUhUeNCm9Z-10" value="" style="whiteSpace=wrap;html=1;aspect=fixed;" parent="1" vertex="1">
          <mxGeometry x="230" y="1024" width="50" height="50" as="geometry" />
        </mxCell>
        <mxCell id="1towVgMfn-rUhUeNCm9Z-11" value="" style="whiteSpace=wrap;html=1;aspect=fixed;fillColor=#B3B3B3;" parent="1" vertex="1">
          <mxGeometry x="282" y="1024" width="50" height="50" as="geometry" />
        </mxCell>
        <mxCell id="1towVgMfn-rUhUeNCm9Z-12" value="" style="whiteSpace=wrap;html=1;aspect=fixed;" parent="1" vertex="1">
          <mxGeometry x="334" y="1024" width="50" height="50" as="geometry" />
        </mxCell>
        <mxCell id="1towVgMfn-rUhUeNCm9Z-13" value="" style="whiteSpace=wrap;html=1;aspect=fixed;fillColor=#FFFFFF;" parent="1" vertex="1">
          <mxGeometry x="386" y="1024" width="50" height="50" as="geometry" />
        </mxCell>
        <mxCell id="MSOwNAgfnWlgVfPWSBbm-1" value="" style="shape=mxgraph.signs.sports.cycling;html=1;pointerEvents=1;fillColor=#000000;strokeColor=none;verticalLabelPosition=bottom;verticalAlign=top;align=center;sketch=0;" parent="1" vertex="1">
          <mxGeometry x="340" y="772.5" width="38" height="33" as="geometry" />
        </mxCell>
        <mxCell id="MSOwNAgfnWlgVfPWSBbm-2" value="" style="shape=mxgraph.signs.food.fast_food;html=1;pointerEvents=1;fillColor=#000000;strokeColor=none;verticalLabelPosition=bottom;verticalAlign=top;align=center;sketch=0;" parent="1" vertex="1">
          <mxGeometry x="239" y="1035.5" width="34" height="27" as="geometry" />
        </mxCell>
        <mxCell id="tjITeFAxHQTLxMOEAPlP-1" value="" style="shape=umlActor;verticalLabelPosition=bottom;verticalAlign=top;html=1;outlineConnect=0;strokeWidth=2;" vertex="1" parent="1">
          <mxGeometry x="400.5" y="1034" width="21" height="30" as="geometry" />
        </mxCell>
      </root>
    </mxGraphModel>
  </diagram>
</mxfile>
